PathFileType	4	(X/Y/Z)	C:\Users\italobelli\Desktop\GitHub\PTbot_officialCBL\Personal_Results\FLX03_noisy2.trc
DataRate	CameraRate	NumFrames	NumMarkers	Units	OrigDataRate	OrigDataStartFrame	OrigNumFrames
106.125000	106.125000	25	9	m	106.125000	107	850
Frame#	Time		gu		centelbow		EpL		centpxt8		centijc7		ij		ts		aa		ai
			X1	Y1	Z1	X2	Y2	Z2	X3	Y3	Z3	X4	Y4	Z4	X5	Y5	Z5	X6	Y6	Z6	X7	Y7	Z7	X8	Y8	Z8	X9	Y9	Z9

107	0.99882	-0.078415	-0.017702	0.16441	-0.095434	-0.26674	0.21408	-0.077031	-0.25941	0.23952	-0.046816	-0.15316	-0.008669	-0.046816	0.031938	-0.008669	0	0	0	-0.13791	0.022022	0.05252	-0.10956	0.02128	0.16837	-0.15075	-0.090494	0.060308
108	1.0082	-0.07834	-0.017719	0.16443	-0.094402	-0.26682	0.21425	-0.076045	-0.25945	0.23969	-0.046816	-0.15316	-0.008669	-0.046816	0.031938	-0.008669	0	0	0	-0.13793	0.021975	0.052555	-0.10955	0.021285	0.16839	-0.15075	-0.090544	0.060388
109	1.0177	-0.078261	-0.017727	0.16445	-0.093213	-0.26683	0.21445	-0.074912	-0.25942	0.23987	-0.046816	-0.15316	-0.008669	-0.046816	0.031938	-0.008669	0	0	0	-0.13796	0.021917	0.052593	-0.10953	0.021294	0.1684	-0.15075	-0.090604	0.060481
110	1.0271	-0.078178	-0.017725	0.16448	-0.091873	-0.26679	0.21466	-0.073637	-0.25932	0.24008	-0.046816	-0.15316	-0.008669	-0.046816	0.031938	-0.008669	0	0	0	-0.13799	0.02185	0.052633	-0.10951	0.021306	0.16842	-0.15075	-0.090674	0.060586
111	1.0365	-0.07809	-0.017715	0.16451	-0.090386	-0.26669	0.21489	-0.072225	-0.25914	0.24031	-0.046816	-0.15316	-0.008669	-0.046816	0.031938	-0.008669	0	0	0	-0.13803	0.021774	0.052675	-0.10949	0.021323	0.16844	-0.15074	-0.090755	0.060703
112	1.0459	-0.077997	-0.017697	0.16454	-0.088758	-0.26652	0.21514	-0.07068	-0.2589	0.24055	-0.046816	-0.15316	-0.008669	-0.046816	0.031938	-0.008669	0	0	0	-0.13807	0.021689	0.052719	-0.10947	0.021343	0.16846	-0.15073	-0.090845	0.060832
113	1.0554	-0.077901	-0.017669	0.16457	-0.086993	-0.26631	0.2154	-0.069007	-0.25859	0.24081	-0.046816	-0.15316	-0.008669	-0.046816	0.031938	-0.008669	0	0	0	-0.13812	0.021594	0.052765	-0.10945	0.021367	0.16848	-0.15071	-0.090945	0.060972
114	1.0648	-0.077801	-0.017633	0.16461	-0.085097	-0.26603	0.21568	-0.06721	-0.25822	0.24108	-0.046816	-0.15316	-0.008669	-0.046816	0.031938	-0.008669	0	0	0	-0.13817	0.021491	0.052814	-0.10943	0.021395	0.1685	-0.15069	-0.091054	0.061124
115	1.0742	-0.077697	-0.017589	0.16465	-0.083076	-0.2657	0.21598	-0.065296	-0.25778	0.24137	-0.046816	-0.15316	-0.008669	-0.046816	0.031938	-0.008669	0	0	0	-0.13823	0.02138	0.052864	-0.10941	0.021426	0.16852	-0.15067	-0.091172	0.061287
116	1.0836	-0.077589	-0.017537	0.16469	-0.080933	-0.26531	0.21629	-0.063269	-0.25728	0.24168	-0.046816	-0.15316	-0.008669	-0.046816	0.031938	-0.008669	0	0	0	-0.13829	0.021261	0.052916	-0.10939	0.021461	0.16854	-0.15064	-0.091298	0.06146
117	1.0931	-0.077478	-0.017476	0.16473	-0.078674	-0.26487	0.21661	-0.061134	-0.25671	0.242	-0.046816	-0.15316	-0.008669	-0.046816	0.031938	-0.008669	0	0	0	-0.13836	0.021133	0.052971	-0.10936	0.021499	0.16856	-0.1506	-0.091432	0.061645
118	1.1025	-0.077364	-0.017408	0.16478	-0.076305	-0.26438	0.21695	-0.058895	-0.25609	0.24233	-0.046816	-0.15316	-0.008669	-0.046816	0.031938	-0.008669	0	0	0	-0.13843	0.020998	0.053026	-0.10934	0.02154	0.16858	-0.15057	-0.091574	0.06184
119	1.1119	-0.077246	-0.017331	0.16483	-0.07383	-0.26384	0.2173	-0.056558	-0.2554	0.24268	-0.046816	-0.15316	-0.008669	-0.046816	0.031938	-0.008669	0	0	0	-0.1385	0.020856	0.053084	-0.10931	0.021585	0.1686	-0.15053	-0.091724	0.062045
120	1.1213	-0.077125	-0.017248	0.16488	-0.071255	-0.26325	0.21766	-0.054127	-0.25466	0.24304	-0.046816	-0.15316	-0.008669	-0.046816	0.031938	-0.008669	0	0	0	-0.13858	0.020707	0.053144	-0.10929	0.021633	0.16862	-0.15048	-0.09188	0.06226
121	1.1307	-0.077002	-0.017156	0.16493	-0.068585	-0.26261	0.21803	-0.051608	-0.25386	0.24341	-0.046816	-0.15316	-0.008669	-0.046816	0.031938	-0.008669	0	0	0	-0.13866	0.02055	0.053205	-0.10926	0.021685	0.16865	-0.15043	-0.092043	0.062485
122	1.1402	-0.076875	-0.017057	0.16498	-0.065825	-0.26192	0.21842	-0.049004	-0.25301	0.24378	-0.046816	-0.15316	-0.008669	-0.046816	0.031938	-0.008669	0	0	0	-0.13875	0.020387	0.053267	-0.10923	0.021739	0.16867	-0.15038	-0.092213	0.06272
123	1.1496	-0.076746	-0.016951	0.16503	-0.06298	-0.26118	0.21881	-0.046322	-0.2521	0.24417	-0.046816	-0.15316	-0.008669	-0.046816	0.031938	-0.008669	0	0	0	-0.13884	0.020218	0.053332	-0.1092	0.021796	0.16869	-0.15033	-0.092388	0.062964
124	1.159	-0.076615	-0.016837	0.16509	-0.060056	-0.2604	0.21921	-0.043566	-0.25114	0.24457	-0.046816	-0.15316	-0.008669	-0.046816	0.031938	-0.008669	0	0	0	-0.13893	0.020043	0.053397	-0.10917	0.021857	0.16871	-0.15027	-0.092569	0.063217
125	1.1684	-0.076481	-0.016716	0.16514	-0.057056	-0.25958	0.21962	-0.040741	-0.25013	0.24497	-0.046816	-0.15316	-0.008669	-0.046816	0.031938	-0.008669	0	0	0	-0.13903	0.019861	0.053465	-0.10914	0.02192	0.16873	-0.15021	-0.092756	0.06348
126	1.1779	-0.076345	-0.016589	0.1652	-0.053988	-0.25871	0.22003	-0.037852	-0.24906	0.24539	-0.046816	-0.15316	-0.008669	-0.046816	0.031938	-0.008669	0	0	0	-0.13912	0.019674	0.053533	-0.10911	0.021986	0.16875	-0.15014	-0.092947	0.063751
127	1.1873	-0.076207	-0.016454	0.16526	-0.050855	-0.2578	0.22046	-0.034904	-0.24795	0.2458	-0.046816	-0.15316	-0.008669	-0.046816	0.031938	-0.008669	0	0	0	-0.13922	0.019482	0.053603	-0.10908	0.022055	0.16878	-0.15008	-0.093143	0.06403
128	1.1967	-0.076067	-0.016313	0.16532	-0.047663	-0.25684	0.22089	-0.031901	-0.24679	0.24623	-0.046816	-0.15316	-0.008669	-0.046816	0.031938	-0.008669	0	0	0	-0.13933	0.019284	0.053674	-0.10905	0.022127	0.1688	-0.15001	-0.093343	0.064318
129	1.2061	-0.075925	-0.016165	0.16538	-0.044417	-0.25585	0.22132	-0.028848	-0.24558	0.24666	-0.046816	-0.15316	-0.008669	-0.046816	0.031938	-0.008669	0	0	0	-0.13943	0.019082	0.053747	-0.10902	0.022202	0.16882	-0.14993	-0.093547	0.064613
130	1.2155	-0.075782	-0.016011	0.16544	-0.041123	-0.25481	0.22176	-0.025751	-0.24433	0.24709	-0.046816	-0.15316	-0.008669	-0.046816	0.031938	-0.008669	0	0	0	-0.13954	0.018874	0.05382	-0.10898	0.022279	0.16884	-0.14986	-0.093755	0.064917
131	1.225	-0.075637	-0.01585	0.1655	-0.037785	-0.25374	0.2222	-0.022615	-0.24304	0.24753	-0.046816	-0.15316	-0.008669	-0.046816	0.031938	-0.008669	0	0	0	-0.13965	0.018663	0.053895	-0.10895	0.022358	0.16886	-0.14978	-0.093966	0.065228
